<svg id="Layer_1" xmlns="http://www.w3.org/2000/svg" viewBox="0 0 35 35" width="35" height="35">
    <path opacity=".6" fill="#E53935" d="M23.983 12.314l-1.297-1.297-5.186 5.186-5.186-5.186-1.297 1.297 5.187 5.186-5.187 5.186 1.297 1.297 5.186-5.186 5.187 5.186 1.297-1.297-5.187-5.186 5.186-5.186z">
    </path>
    <path opacity=".6" fill="#E53935" d="M17.5 34.75C7.988 34.75.25 27.012.25 17.5S7.988.25 17.5.25 34.75 7.988 34.75 17.5 27.012 34.75 17.5 34.75zm0-33.5C8.54 1.25 1.25 8.54 1.25 17.5S8.54 33.75 17.5 33.75s16.25-7.29 16.25-16.25S26.46 1.25 17.5 1.25z">
    </path>
</svg>