<svg id="Layer_1" xmlns="http://www.w3.org/2000/svg" viewBox="0 0 16 16" width="16" height="16"><path id="Combined-Shape_1_" fill="#263238" fill-opacity=".4" d="M9.179 14.637c.061-.14.106-.29.135-.45.031-.171.044-.338.049-.543a9.05 9.05 0 0 0 .003-.233l.001-.067v-.072l.002-.216c.01-.364.032-1.205.08-1.473.052-.287.136-.538.255-.771a2.535 2.535 0 0 1 1.125-1.111 2.8 2.8 0 0 1 .786-.255c.27-.048 1.098-.07 1.487-.08l.152.001h.047l.325-.004a3.63 3.63 0 0 0 .554-.048 2.06 2.06 0 0 0 .494-.151 4.766 4.766 0 0 1-1.359 2.429 143.91 143.91 0 0 1-2.057 1.924 4.782 4.782 0 0 1-2.079 1.12zm-1.821.16l-.474.012a9.023 9.023 0 0 1-1.879-.11 4.747 4.747 0 0 1-1.314-.428 4.376 4.376 0 0 1-1.123-.807 4.354 4.354 0 0 1-.816-1.11 4.584 4.584 0 0 1-.434-1.303 8.783 8.783 0 0 1-.12-1.356 29.156 29.156 0 0 1-.009-.617c-.002-.206-.002-.37-.002-.736v-.674l.001-.549.001-.182c.001-.223.004-.426.009-.62a8.69 8.69 0 0 1 .121-1.358c.087-.476.229-.903.434-1.301a4.399 4.399 0 0 1 1.936-1.916 4.7 4.7 0 0 1 1.315-.429 8.926 8.926 0 0 1 1.379-.12c.72-.009.989-.011 1.359-.011h.528c.896.003 1.143.005 1.366.011.55.015.959.046 1.371.12.482.085.913.226 1.314.428a4.396 4.396 0 0 1 1.937 1.915c.206.4.348.827.434 1.302.075.412.107.819.121 1.356.006.198.009.402.01.619v.024c0 .069-.001.132-.003.194a2.61 2.61 0 0 1-.033.391.902.902 0 0 1-.494.677 1.05 1.05 0 0 1-.29.094 2.734 2.734 0 0 1-.395.033l-.311.004h-.039l-.163-.001c-.453.012-1.325.036-1.656.096a3.81 3.81 0 0 0-1.064.348 3.541 3.541 0 0 0-.911.655c-.267.263-.49.566-.661.899-.166.324-.281.67-.351 1.054-.06.33-.085 1.216-.096 1.636l-.002.23v.069l-.001.067c0 .074-.001.143-.003.213-.004.158-.014.28-.033.388a.902.902 0 0 1-.494.676 1.054 1.054 0 0 1-.289.093 1.335 1.335 0 0 1-.176.024z"></path></svg>